<?xml version="1.0" encoding="UTF-8"?><svg id="Layer_1" xmlns="http://www.w3.org/2000/svg" viewBox="0 0 1476 1686.09"><defs><style>.cls-1,.cls-2,.cls-3{fill:#fff;}.cls-2{stroke-width:70px;}.cls-2,.cls-3{stroke:#fff;stroke-linecap:round;stroke-linejoin:round;}.cls-3{stroke-width:30px;}</style></defs><g><path class="cls-2" d="M1424.84,35H51.16c-8.93,0-16.16,7.24-16.16,16.16V1634.93c0,8.93,7.24,16.16,16.16,16.16H1424.84c8.93,0,16.16-7.24,16.16-16.16V51.16c0-8.93-7.24-16.16-16.16-16.16Zm-16.16,32.32V447.1H67.32V67.32H1408.68Zm0,412.1v921.17H67.32V479.43H1408.68ZM67.32,1618.77v-185.85H1408.68v185.85H67.32Z"/><path class="cls-3" d="M326.03,1247.07h823.94c35.72,0,64.78-29.06,64.78-64.78v-484.56c0-35.72-29.06-64.78-64.78-64.78H326.03c-35.72,0-64.78,29.06-64.78,64.78v484.56c0,35.72,29.06,64.78,64.78,64.78Zm-32.46-549.34c0-17.9,14.56-32.46,32.46-32.46h823.94c17.9,0,32.46,14.56,32.46,32.46v484.56c0,17.9-14.56,32.46-32.46,32.46H326.03c-17.9,0-32.46-14.56-32.46-32.46v-484.56Z"/><path class="cls-3" d="M321.05,356.6c52.58,0,95.35-42.77,95.35-95.35s-42.77-95.35-95.35-95.35-95.35,42.77-95.35,95.35,42.77,95.35,95.35,95.35Zm0-158.38c34.75,0,63.03,28.27,63.03,63.03s-28.27,63.03-63.03,63.03-63.03-28.27-63.03-63.03,28.27-63.03,63.03-63.03Z"/><path class="cls-3" d="M599.02,356.6c52.58,0,95.35-42.77,95.35-95.35s-42.77-95.35-95.35-95.35-95.35,42.77-95.35,95.35,42.77,95.35,95.35,95.35Zm0-158.38c34.75,0,63.03,28.27,63.03,63.03s-28.27,63.03-63.03,63.03-63.03-28.27-63.03-63.03,28.27-63.03,63.03-63.03Z"/><path class="cls-3" d="M876.98,356.6c52.58,0,95.35-42.77,95.35-95.35s-42.77-95.35-95.35-95.35-95.35,42.77-95.35,95.35,42.77,95.35,95.35,95.35Zm0-158.38c34.75,0,63.03,28.27,63.03,63.03s-28.27,63.03-63.03,63.03-63.03-28.27-63.03-63.03,28.27-63.03,63.03-63.03Z"/><path class="cls-3" d="M1154.95,356.6c52.58,0,95.35-42.77,95.35-95.35s-42.77-95.35-95.35-95.35-95.35,42.77-95.35,95.35,42.77,95.35,95.35,95.35Zm0-158.38c34.75,0,63.03,28.27,63.03,63.03s-28.27,63.03-63.03,63.03-63.03-28.27-63.03-63.03,28.27-63.03,63.03-63.03Z"/></g><g><line class="cls-1" x1="605.38" y1="1094.29" x2="876.1" y2="761.98"/><path class="cls-1" d="M592.38,1083.7c34.01-63.27,77.4-121.01,122.58-176.57,45.83-55.08,94.25-108.8,149.94-154.28,12.5-9.56,29.24,4.12,22.41,18.25-8.14,16.27-17.4,31.77-26.88,47.21-47.61,75.88-103.28,146.19-164.08,211.87-24.66,26.17-50.09,51.82-77.96,74.71-14.55,11.37-34.2-4.73-26-21.18h0Z"/></g><g><line class="cls-1" x1="517" y1="931.59" x2="673.53" y2="740.42"/><path class="cls-1" d="M507.64,923.92c3.75-10.06,8.48-19.5,13.47-28.88,24.98-45.44,57.38-86.13,94.54-122.17,15.26-14.42,31.33-28.31,49.32-39.45,9.42-5.63,20.76,3.75,17.11,14.01-7.37,19.83-17.82,38.33-28.95,56.13-30.93,47.8-68.23,91.79-113.54,126.58-4.25,3.17-8.59,6.27-13.24,9.12-10.33,6.3-22.84-4.06-18.72-15.33h0Z"/></g><g><line class="cls-1" x1="811.47" y1="1123.08" x2="968" y2="931.92"/><path class="cls-1" d="M801.48,1114.91c22.33-62.28,78.71-131.75,130.52-172.55,4.17-3.24,8.42-6.41,12.85-9.44,4.41-3.05,8.92-6,13.78-8.67,6.32-3.47,14.25-1.16,17.72,5.16,1.77,3.23,2.02,6.92,1.01,10.18-1.66,5.29-3.67,10.3-5.78,15.22-14.57,33.48-35.16,64.06-57.98,92.23-26.52,31.98-56.21,62.59-92.15,84.22-10.95,6.16-23.84-4.51-19.97-16.35h0Z"/></g></svg>