<svg xmlns="http://www.w3.org/2000/svg" xmlns:xlink="http://www.w3.org/1999/xlink" width="24" height="24" viewBox="0 0 24 24">
  <defs>
    <clipPath id="clip-path">
      <rect id="사각형_353069" data-name="사각형 353069" width="24" height="24" transform="translate(221 734)" fill="#9a9693"/>
    </clipPath>
  </defs>
  <g id="마스크_그룹_221" data-name="마스크 그룹 221" transform="translate(-221 -734)" clip-path="url(#clip-path)">
    <g id="map-pin-2-fill_1_" data-name="map-pin-2-fill (1)" transform="translate(221 734)">
      <path id="패스_860359" data-name="패스 860359" d="M0,0H24V24H0Z" fill="none"/>
      <path id="빼기_2" data-name="빼기 2" d="M-6438-421.272h0l-6.364-6.364A8.939,8.939,0,0,1-6447-434a8.939,8.939,0,0,1,2.636-6.364A8.941,8.941,0,0,1-6438-443a8.941,8.941,0,0,1,6.364,2.636,9.01,9.01,0,0,1,0,12.727l-6.364,6.364Zm0-15.727a3,3,0,0,0-3,3,3,3,0,0,0,3,3,3,3,0,0,0,3-3A3,3,0,0,0-6438-437Z" transform="translate(6450 445)" fill="#9a9693"/>
    </g>
  </g>
</svg>
