<svg xmlns="http://www.w3.org/2000/svg" xmlns:xlink="http://www.w3.org/1999/xlink" width="66" height="66" viewBox="0 0 66 66">
  <defs>
    <clipPath id="clip-path">
      <rect id="사각형_343475" data-name="사각형 343475" width="66" height="66" transform="translate(772 3299.541)" fill="#fff" stroke="#707070" stroke-width="1"/>
    </clipPath>
  </defs>
  <g id="마스크_그룹_194" data-name="마스크 그룹 194" transform="translate(-772 -3299.541)" clip-path="url(#clip-path)">
    <g id="instagram_4_" data-name="instagram (4)" transform="translate(772.006 3300.012)">
      <path id="패스_860308" data-name="패스 860308" d="M64.955,19.139a23.786,23.786,0,0,0-1.513-7.9,16.675,16.675,0,0,0-9.525-9.525A23.847,23.847,0,0,0,46.02.2C42.535.038,41.429,0,32.591,0S22.646.038,19.175.191a23.793,23.793,0,0,0-7.9,1.513A15.883,15.883,0,0,0,5.5,5.468a16.027,16.027,0,0,0-3.751,5.761,23.85,23.85,0,0,0-1.513,7.9c-.165,3.485-.2,4.591-.2,13.429S.074,42.5.227,45.971a23.785,23.785,0,0,0,1.514,7.9,16.673,16.673,0,0,0,9.525,9.525,23.851,23.851,0,0,0,7.9,1.513c3.471.153,4.578.191,13.416.191s9.944-.038,13.416-.191a23.78,23.78,0,0,0,7.9-1.513,16.65,16.65,0,0,0,9.525-9.525,23.866,23.866,0,0,0,1.513-7.9c.153-3.472.191-4.578.191-13.416S65.107,22.61,64.955,19.139ZM59.092,45.716a17.843,17.843,0,0,1-1.119,6.04,10.8,10.8,0,0,1-6.18,6.18,17.906,17.906,0,0,1-6.04,1.119c-3.433.153-4.463.191-13.149.191s-9.728-.038-13.149-.191a17.833,17.833,0,0,1-6.04-1.119,10.017,10.017,0,0,1-3.739-2.429A10.121,10.121,0,0,1,7.246,51.77a17.909,17.909,0,0,1-1.119-6.04c-.153-3.433-.191-4.464-.191-13.149s.038-9.728.191-13.149a17.833,17.833,0,0,1,1.119-6.04A9.894,9.894,0,0,1,9.688,9.652a10.105,10.105,0,0,1,3.739-2.429A17.918,17.918,0,0,1,19.467,6.1c3.433-.153,4.464-.191,13.149-.191s9.728.038,13.149.191a17.843,17.843,0,0,1,6.04,1.119,10.01,10.01,0,0,1,3.738,2.429,10.118,10.118,0,0,1,2.429,3.739,17.915,17.915,0,0,1,1.119,6.04c.153,3.433.191,4.463.191,13.149S59.245,42.283,59.092,45.716Zm0,0" transform="translate(-0.036 0)"/>
      <path id="패스_860309" data-name="패스 860309" d="M26.73,9.972A16.722,16.722,0,1,0,43.453,26.694,16.727,16.727,0,0,0,26.73,9.972Zm0,27.57A10.847,10.847,0,1,1,37.578,26.694,10.849,10.849,0,0,1,26.73,37.542Zm0,0" transform="translate(5.825 5.861)"/>
      <path id="패스_860310" data-name="패스 860310" d="M36.838,11a3.9,3.9,0,1,1-3.9-3.9A3.9,3.9,0,0,1,36.838,11Zm0,0" transform="translate(17.004 4.171)"/>
    </g>
  </g>
</svg>
