<svg xmlns="http://www.w3.org/2000/svg" xmlns:xlink="http://www.w3.org/1999/xlink" width="63.933" height="35.005" viewBox="0 0 63.933 35.005"><defs><clipPath id="a"><rect width="63.933" height="35.005" transform="translate(0 -1)" fill="none"/></clipPath><clipPath id="b"><rect width="63.933" height="34.005" fill="none"/></clipPath></defs><g transform="translate(-1770.034 -916)"><g transform="translate(1770.034 917)" clip-path="url(#a)"><g transform="translate(0 0)"><g clip-path="url(#b)"><path d="M57.889,20.659a5.95,5.95,0,0,1,5.751-6.132V5.9H7.416v8.628a5.951,5.951,0,0,1,5.752,6.132,5.951,5.951,0,0,1-5.752,6.132v8.628H63.64V26.791a5.95,5.95,0,0,1-5.751-6.132" transform="translate(-0.624 -1.412)" fill="#c41f1f"/><path d="M51.473,16.807c0-3.627,2.575-6.567,5.751-6.567V1H1v9.24c3.176,0,5.752,2.94,5.752,6.567S4.176,23.374,1,23.374v9.24H57.224v-9.24c-3.176,0-5.751-2.94-5.751-6.567" transform="translate(-0.084 -2.048)" fill="#e27c7c"/></g></g></g><rect width="2" height="6" transform="translate(1810 921)" opacity="0.15"/><rect width="2" height="6" transform="translate(1810 930)" opacity="0.15"/><rect width="2" height="6" transform="translate(1810 939)" opacity="0.15"/></g></svg>