<svg xmlns="http://www.w3.org/2000/svg" xmlns:xlink="http://www.w3.org/1999/xlink" width="110" height="27" viewBox="0 0 110 27">
  <defs>
    <clipPath id="clip-path">
      <rect id="사각형_352351" data-name="사각형 352351" width="110" height="27" transform="translate(200 50)" fill="#fff"/>
    </clipPath>
    <clipPath id="clip-path-2">
      <rect id="사각형_1121" data-name="사각형 1121" width="105.416" height="33.738"/>
    </clipPath>
  </defs>
  <g id="마스크_그룹_214" data-name="마스크 그룹 214" transform="translate(-200 -50)" clip-path="url(#clip-path)">
    <g id="그룹_7269" data-name="그룹 7269" transform="translate(202 49.999)">
      <path id="패스_5893" data-name="패스 5893" d="M20.733,50.083v3.256l-1.985-3.256h-.966v4.878h.913v-3.18l1.971,3.18h.986V50.083Z" transform="translate(-7.563 -21.302)"/>
      <g id="그룹_7268" data-name="그룹 7268">
        <g id="그룹_7267" data-name="그룹 7267" clip-path="url(#clip-path-2)">
          <path id="패스_5894" data-name="패스 5894" d="M25.585,54.075a1.859,1.859,0,0,1,.231-.894,1.587,1.587,0,0,1,.647-.673,1.95,1.95,0,0,1,.944-.231,1.76,1.76,0,0,1,1.307.522,1.954,1.954,0,0,1-.007,2.65,1.734,1.734,0,0,1-1.3.522,2.034,2.034,0,0,1-.925-.221,1.506,1.506,0,0,1-.665-.642,2.14,2.14,0,0,1-.231-1.033m.952.054a1.185,1.185,0,0,0,.255.8.818.818,0,0,0,1.23,0,1.218,1.218,0,0,0,.245-.807,1.18,1.18,0,0,0-.245-.8.818.818,0,0,0-1.23,0,1.175,1.175,0,0,0-.255.8" transform="translate(-10.882 -22.235)"/>
          <rect id="사각형_1120" data-name="사각형 1120" width="0.937" height="0.937" transform="translate(18.877 32.722)"/>
          <path id="패스_5895" data-name="패스 5895" d="M38,54.946h-.93V51.421a3.177,3.177,0,0,1-1.209.707v-.845a2.779,2.779,0,0,0,.8-.457,1.686,1.686,0,0,0,.584-.779H38Z" transform="translate(-15.254 -21.287)"/>
          <path id="패스_5896" data-name="패스 5896" d="M44.613,52.487a3.078,3.078,0,0,1,.226-1.25,2.2,2.2,0,0,1,.459-.668,1.917,1.917,0,0,1,.63-.443,2.661,2.661,0,0,1,1.05-.193,2.3,2.3,0,0,1,1.723.672,2.985,2.985,0,0,1,.007,3.707,2.575,2.575,0,0,1-3.449,0,2.517,2.517,0,0,1-.647-1.829m1.017-.035a1.832,1.832,0,0,0,.384,1.258,1.31,1.31,0,0,0,1.94,0,1.877,1.877,0,0,0,.372-1.274,1.814,1.814,0,0,0-.368-1.247,1.222,1.222,0,0,0-.973-.413,1.245,1.245,0,0,0-.978.416,1.836,1.836,0,0,0-.377,1.258" transform="translate(-18.975 -21.238)"/>
          <path id="패스_5897" data-name="패스 5897" d="M54.453,55.953l-1.418-3.537h.98l.663,1.8.2.606c.051-.155.084-.254.094-.306.027-.1.065-.2.1-.3l.672-1.8H56.7l-1.4,3.537Z" transform="translate(-22.557 -22.294)"/>
          <path id="패스_5898" data-name="패스 5898" d="M61.9,54.769l.93.157a1.542,1.542,0,0,1-.564.776,1.661,1.661,0,0,1-.973.269,1.563,1.563,0,0,1-1.358-.6,2.013,2.013,0,0,1-.353-1.216,1.938,1.938,0,0,1,.464-1.375,1.493,1.493,0,0,1,1.159-.5,1.57,1.57,0,0,1,1.24.522,2.246,2.246,0,0,1,.437,1.6H60.534a.989.989,0,0,0,.233.646.7.7,0,0,0,.536.233.586.586,0,0,0,.367-.114.833.833,0,0,0,.228-.391m.056-.946a.89.89,0,0,0-.218-.617.628.628,0,0,0-.481-.214.662.662,0,0,0-.505.225.88.88,0,0,0-.192.606Z" transform="translate(-25.341 -22.235)"/>
          <path id="패스_5899" data-name="패스 5899" d="M69.5,55.894h-.937V54.086a2.4,2.4,0,0,0-.064-.736.474.474,0,0,0-.2-.264.518.518,0,0,0-.319-.093.748.748,0,0,0-.435.138.688.688,0,0,0-.267.353,3.376,3.376,0,0,0-.07.8v1.606h-.937V52.357h.872v.521a1.4,1.4,0,0,1,1.156-.6,1.453,1.453,0,0,1,.572.113.949.949,0,0,1,.387.288,1.012,1.012,0,0,1,.18.389,2.4,2.4,0,0,1,.057.63Z" transform="translate(-28.19 -22.235)"/>
          <path id="패스_5900" data-name="패스 5900" d="M76.14,54.96V50.082h2.067a3.423,3.423,0,0,1,1.137.134,1.106,1.106,0,0,1,.569.465,1.4,1.4,0,0,1,.212.769,1.313,1.313,0,0,1-.325.907,1.594,1.594,0,0,1-.961.452,2.1,2.1,0,0,1,.524.409,5.559,5.559,0,0,1,.562.788l.6.954H79.344l-.714-1.066a6.32,6.32,0,0,0-.514-.71.743.743,0,0,0-.3-.207,1.5,1.5,0,0,0-.495-.053h-.2V54.96Zm.978-2.818h.73a3.836,3.836,0,0,0,.887-.059.474.474,0,0,0,.272-.2.654.654,0,0,0,.106-.374.573.573,0,0,0-.134-.394.66.66,0,0,0-.368-.2c-.082-.01-.32-.011-.724-.011h-.769Z" transform="translate(-32.385 -21.301)"/>
          <path id="패스_5901" data-name="패스 5901" d="M83.94,54.075a1.943,1.943,0,0,1,.228-.894,1.615,1.615,0,0,1,.652-.673,1.974,1.974,0,0,1,.94-.231,1.765,1.765,0,0,1,1.826,1.841,1.814,1.814,0,0,1-.517,1.331,1.743,1.743,0,0,1-1.3.522,1.975,1.975,0,0,1-.925-.221,1.53,1.53,0,0,1-.676-.642,2.229,2.229,0,0,1-.228-1.033m.961.054a1.163,1.163,0,0,0,.245.8.812.812,0,0,0,.623.279.775.775,0,0,0,.608-.279,1.171,1.171,0,0,0,.248-.807,1.135,1.135,0,0,0-.248-.8.761.761,0,0,0-.608-.279.8.8,0,0,0-.623.279,1.154,1.154,0,0,0-.245.8" transform="translate(-35.702 -22.235)"/>
          <path id="패스_5902" data-name="패스 5902" d="M91.725,53.435l-.844-.148a1.273,1.273,0,0,1,.49-.757,1.766,1.766,0,0,1,1.031-.252,2.2,2.2,0,0,1,.935.153.943.943,0,0,1,.433.368,2.042,2.042,0,0,1,.125.842l-.013,1.093a4.5,4.5,0,0,0,.041.683,2.038,2.038,0,0,0,.175.477h-.924c-.026-.064-.055-.156-.093-.279-.02-.056-.026-.091-.034-.108a1.68,1.68,0,0,1-.517.352,1.575,1.575,0,0,1-.586.111,1.181,1.181,0,0,1-.848-.294.985.985,0,0,1-.313-.751,1.007,1.007,0,0,1,.144-.531.876.876,0,0,1,.4-.36,3.093,3.093,0,0,1,.74-.219,5.25,5.25,0,0,0,.9-.228V53.5a.48.48,0,0,0-.13-.387.83.83,0,0,0-.51-.116.683.683,0,0,0-.389.1.7.7,0,0,0-.221.343m1.249.763a5.069,5.069,0,0,1-.572.14,1.752,1.752,0,0,0-.507.166.387.387,0,0,0-.18.326.454.454,0,0,0,.146.343.529.529,0,0,0,.373.141.8.8,0,0,0,.48-.166.584.584,0,0,0,.228-.307,2.123,2.123,0,0,0,.032-.456Z" transform="translate(-38.614 -22.235)"/>
          <path id="패스_5903" data-name="패스 5903" d="M96.882,54.883l.93-.144a.7.7,0,0,0,.243.422.865.865,0,0,0,.51.137.953.953,0,0,0,.551-.133.308.308,0,0,0,.127-.249.256.256,0,0,0-.077-.177.74.74,0,0,0-.3-.125,5.084,5.084,0,0,1-1.44-.454.906.906,0,0,1-.416-.793.946.946,0,0,1,.36-.768,1.681,1.681,0,0,1,1.125-.321,1.925,1.925,0,0,1,1.072.238,1.212,1.212,0,0,1,.488.7l-.878.16a.57.57,0,0,0-.214-.313.8.8,0,0,0-.457-.112.973.973,0,0,0-.519.1.22.22,0,0,0-.113.195.213.213,0,0,0,.091.166,3.724,3.724,0,0,0,.869.264,2.725,2.725,0,0,1,1.05.414.885.885,0,0,1,.288.7,1.058,1.058,0,0,1-.4.834,1.779,1.779,0,0,1-1.2.35,1.938,1.938,0,0,1-1.137-.293,1.28,1.28,0,0,1-.545-.8" transform="translate(-41.207 -22.235)"/>
          <path id="패스_5904" data-name="패스 5904" d="M105.012,51.494v.745h-.642v1.427a2.929,2.929,0,0,0,.022.5.235.235,0,0,0,.08.12.293.293,0,0,0,.158.046,1.2,1.2,0,0,0,.38-.088l.082.724a1.907,1.907,0,0,1-.74.139,1.172,1.172,0,0,1-.454-.081.685.685,0,0,1-.3-.219,1.038,1.038,0,0,1-.134-.364,5.143,5.143,0,0,1-.029-.663V52.239h-.425v-.745h.425v-.7l.937-.548v1.245Z" transform="translate(-43.812 -21.372)"/>
          <path id="패스_5905" data-name="패스 5905" d="M109.115,54.769l.927.157a1.5,1.5,0,0,1-.567.776,1.637,1.637,0,0,1-.967.269,1.574,1.574,0,0,1-1.362-.6,2.045,2.045,0,0,1-.353-1.216,1.929,1.929,0,0,1,.461-1.375,1.5,1.5,0,0,1,1.156-.5,1.588,1.588,0,0,1,1.249.522,2.3,2.3,0,0,1,.44,1.6h-2.35a.962.962,0,0,0,.224.646.729.729,0,0,0,.545.233.593.593,0,0,0,.368-.114.853.853,0,0,0,.229-.391m.05-.946a.894.894,0,0,0-.206-.617.654.654,0,0,0-.488-.214.672.672,0,0,0-.51.225.836.836,0,0,0-.187.606Z" transform="translate(-45.422 -22.235)"/>
          <path id="패스_5906" data-name="패스 5906" d="M116.592,54.961h-.87v-.518a1.44,1.44,0,0,1-.509.447,1.293,1.293,0,0,1-.589.149,1.338,1.338,0,0,1-1.05-.492,2.394,2.394,0,0,1-.01-2.731,1.385,1.385,0,0,1,1.072-.47,1.328,1.328,0,0,1,1.019.495V50.083h.937ZM114.1,53.116a1.62,1.62,0,0,0,.153.817.713.713,0,0,0,.634.369.7.7,0,0,0,.548-.273,1.31,1.31,0,0,0,.218-.823,1.448,1.448,0,0,0-.209-.876.725.725,0,0,0-1.129,0,1.2,1.2,0,0,0-.216.786" transform="translate(-48.122 -21.302)"/>
          <path id="패스_5907" data-name="패스 5907" d="M126.335,53.1l.954.3a2.2,2.2,0,0,1-.736,1.191,2.308,2.308,0,0,1-2.891-.278,2.546,2.546,0,0,1-.628-1.817,2.656,2.656,0,0,1,.632-1.889,2.165,2.165,0,0,1,1.651-.676,2.043,2.043,0,0,1,1.459.532,2.065,2.065,0,0,1,.5.894l-.978.241a1.009,1.009,0,0,0-1.024-.823,1.126,1.126,0,0,0-.882.39,1.872,1.872,0,0,0-.339,1.256,2.075,2.075,0,0,0,.327,1.317,1.1,1.1,0,0,0,.875.4,1,1,0,0,0,.675-.255,1.48,1.48,0,0,0,.406-.783" transform="translate(-52.331 -21.238)"/>
          <path id="패스_5908" data-name="패스 5908" d="M132.461,50.082v1.792a1.381,1.381,0,0,1,1.082-.531,1.342,1.342,0,0,1,.582.122.925.925,0,0,1,.389.307,1.124,1.124,0,0,1,.18.414,3.083,3.083,0,0,1,.055.7V54.96H133.8V53.093a2.888,2.888,0,0,0-.048-.7.465.465,0,0,0-.193-.244.6.6,0,0,0-.336-.089.8.8,0,0,0-.418.117.65.65,0,0,0-.26.34,1.8,1.8,0,0,0-.089.674V54.96h-.94V50.082Z" transform="translate(-55.94 -21.301)"/>
          <path id="패스_5909" data-name="패스 5909" d="M138.42,50.083h.933v.867h-.933Zm0,1.341h.933v3.537h-.933Z" transform="translate(-58.874 -21.302)"/>
          <path id="패스_5910" data-name="패스 5910" d="M144.286,53.408l-.923.161a.686.686,0,0,0-.214-.417.644.644,0,0,0-.428-.142.689.689,0,0,0-.553.248,1.236,1.236,0,0,0-.211.8,1.461,1.461,0,0,0,.211.892.719.719,0,0,0,.572.255.649.649,0,0,0,.433-.147.94.94,0,0,0,.24-.528l.918.161a1.65,1.65,0,0,1-.55.957,1.73,1.73,0,0,1-1.088.317,1.619,1.619,0,0,1-1.238-.489,2.24,2.24,0,0,1,.01-2.716,1.635,1.635,0,0,1,1.245-.488,1.657,1.657,0,0,1,1.024.282,1.493,1.493,0,0,1,.553.848" transform="translate(-59.972 -22.235)"/>
          <path id="패스_5911" data-name="패스 5911" d="M147.537,54.961V50.082h.928v2.588l1.1-1.247h1.149l-1.2,1.29,1.288,2.247h-1.009l-.882-1.59-.445.453v1.137Z" transform="translate(-62.752 -21.302)"/>
          <path id="패스_5912" data-name="패스 5912" d="M155.675,54.769l.933.157a1.55,1.55,0,0,1-.57.776,1.652,1.652,0,0,1-.971.269,1.577,1.577,0,0,1-1.363-.6,1.98,1.98,0,0,1-.347-1.216,1.959,1.959,0,0,1,.457-1.375,1.511,1.511,0,0,1,1.159-.5,1.572,1.572,0,0,1,1.245.522,2.263,2.263,0,0,1,.44,1.6H154.31a.99.99,0,0,0,.225.646.722.722,0,0,0,.544.233.59.59,0,0,0,.367-.114.815.815,0,0,0,.229-.391m.055-.946a.933.933,0,0,0-.211-.617.649.649,0,0,0-.488-.214.678.678,0,0,0-.511.225.874.874,0,0,0-.183.606Z" transform="translate(-65.228 -22.235)"/>
          <path id="패스_5913" data-name="패스 5913" d="M163.269,55.894h-.928V54.086a2.651,2.651,0,0,0-.065-.736.5.5,0,0,0-.193-.264.547.547,0,0,0-.322-.093.708.708,0,0,0-.43.138.617.617,0,0,0-.271.353,2.92,2.92,0,0,0-.07.8v1.606h-.937V52.357h.869v.521a1.417,1.417,0,0,1,1.161-.6,1.4,1.4,0,0,1,.567.113.959.959,0,0,1,.39.288,1.236,1.236,0,0,1,.185.389,3.276,3.276,0,0,1,.043.63Z" transform="translate(-68.076 -22.235)"/>
          <path id="패스_5914" data-name="패스 5914" d="M35.713,23.212a12.075,12.075,0,0,1,.334-3.026,8.362,8.362,0,0,1,.882-2.246,6.211,6.211,0,0,1,1.262-1.58,8.154,8.154,0,0,1,1.446-1.032,8.294,8.294,0,0,1,7.89,0,8.306,8.306,0,0,1,1.447,1.032,6.319,6.319,0,0,1,1.264,1.58,9.266,9.266,0,0,1,.9,2.246,11.73,11.73,0,0,1,.346,3.026,11.731,11.731,0,0,1-.346,3.031,9.023,9.023,0,0,1-.9,2.231,6.279,6.279,0,0,1-1.264,1.548,8.573,8.573,0,0,1-9.337,1.014,8.544,8.544,0,0,1-1.446-1.014,6.171,6.171,0,0,1-1.262-1.548,8.156,8.156,0,0,1-.882-2.231,12.076,12.076,0,0,1-.334-3.031M43.6,18.258a3.526,3.526,0,0,0-1.98.5A3.408,3.408,0,0,0,40.472,20a4.988,4.988,0,0,0-.532,1.615,9.405,9.405,0,0,0,0,3.2,4.943,4.943,0,0,0,.532,1.613,3.428,3.428,0,0,0,1.146,1.251,4.18,4.18,0,0,0,3.958,0,3.423,3.423,0,0,0,1.151-1.251,5.057,5.057,0,0,0,.533-1.613,9.728,9.728,0,0,0,0-3.2A5.1,5.1,0,0,0,46.727,20a3.4,3.4,0,0,0-1.151-1.247,3.512,3.512,0,0,0-1.978-.5" transform="translate(-15.19 -6.095)" fill="#d4000b"/>
          <path id="패스_5915" data-name="패스 5915" d="M64.748,23.212a12.076,12.076,0,0,1,.334-3.026,8.7,8.7,0,0,1,.878-2.246,6.278,6.278,0,0,1,1.264-1.58,8.268,8.268,0,0,1,1.452-1.032,8.285,8.285,0,0,1,7.885,0,8.255,8.255,0,0,1,1.449,1.032,6.362,6.362,0,0,1,1.266,1.58,9.313,9.313,0,0,1,.9,2.246,11.8,11.8,0,0,1,.349,3.026,11.8,11.8,0,0,1-.349,3.031,9.068,9.068,0,0,1-.9,2.231,6.323,6.323,0,0,1-1.266,1.548,7.77,7.77,0,0,1-5.376,1.949,8.756,8.756,0,0,1-3.958-.935,8.669,8.669,0,0,1-1.452-1.014,6.239,6.239,0,0,1-1.264-1.548,8.478,8.478,0,0,1-.878-2.231,12.078,12.078,0,0,1-.334-3.031m7.885-4.954a3.531,3.531,0,0,0-1.98.5A3.409,3.409,0,0,0,69.506,20a5.122,5.122,0,0,0-.536,1.615,11.2,11.2,0,0,0-.132,1.595,11.234,11.234,0,0,0,.132,1.6,5.075,5.075,0,0,0,.536,1.613,3.43,3.43,0,0,0,1.146,1.251,4.183,4.183,0,0,0,3.96,0,3.385,3.385,0,0,0,1.146-1.251,5,5,0,0,0,.534-1.613,9.941,9.941,0,0,0,0-3.2A5.047,5.047,0,0,0,75.759,20a3.366,3.366,0,0,0-1.146-1.247,3.529,3.529,0,0,0-1.98-.5" transform="translate(-27.539 -6.095)" fill="#d4000b"/>
          <path id="패스_5916" data-name="패스 5916" d="M97.829,12.969c.017-.021.031-.045.048-.067a4.693,4.693,0,0,1,.7-.779,6.932,6.932,0,0,1,1.7-1.113,6.762,6.762,0,0,1,2-.5,7.611,7.611,0,0,1,3.658,1,6.7,6.7,0,0,1,1.35,1.032,6.512,6.512,0,0,1,1.163,1.58,9.207,9.207,0,0,1,.834,2.246,12.924,12.924,0,0,1,.32,3.026,11.711,11.711,0,0,1-.351,3.03,9.041,9.041,0,0,1-.9,2.231,6.166,6.166,0,0,1-1.264,1.548,8.2,8.2,0,0,1-1.449,1.014,8.679,8.679,0,0,1-3.927.935,8.468,8.468,0,0,1-3.891-.935,7.894,7.894,0,0,1-1.43-1.014,6.191,6.191,0,0,1-1.245-1.562,8.946,8.946,0,0,1-.889-2.252,12.514,12.514,0,0,1-.329-3.026V5.353h3.961v7.6s-.3.384-.048.014M101.7,24.357a3.546,3.546,0,0,0,1.985-.5,3.492,3.492,0,0,0,1.149-1.251,5.057,5.057,0,0,0,.531-1.613,9.769,9.769,0,0,0,0-3.2,5.1,5.1,0,0,0-.531-1.614,3.472,3.472,0,0,0-1.149-1.248,4.2,4.2,0,0,0-3.965,0,3.608,3.608,0,0,0-1.161,1.248A4.8,4.8,0,0,0,98.01,17.8a9.728,9.728,0,0,0,0,3.2,4.756,4.756,0,0,0,.551,1.613,3.628,3.628,0,0,0,1.161,1.251,3.555,3.555,0,0,0,1.98.5" transform="translate(-39.946 -2.277)" fill="#d4000b"/>
          <path id="패스_5917" data-name="패스 5917" d="M134.846,14.329c.065,0,.306.012.717.033a6.252,6.252,0,0,1,1.446.286,8.557,8.557,0,0,1,1.764.782,6.116,6.116,0,0,1,1.73,1.527,8.228,8.228,0,0,1,1.313,2.512,11.723,11.723,0,0,1,.517,3.742v8.422h-4.057V23.212a8.506,8.506,0,0,0-.137-1.5,4.2,4.2,0,0,0-.5-1.4,3.075,3.075,0,0,0-1.028-1.048,3.963,3.963,0,0,0-3.531,0,3.068,3.068,0,0,0-1.031,1.048,4.211,4.211,0,0,0-.5,1.4,8.724,8.724,0,0,0-.134,1.5v8.422h-4.062V23.212a11.641,11.641,0,0,1,.517-3.742,8.277,8.277,0,0,1,1.311-2.512,6.172,6.172,0,0,1,1.733-1.527,8.465,8.465,0,0,1,1.766-.782,6.183,6.183,0,0,1,1.43-.286c.4-.021.644-.033.733-.033" transform="translate(-54.168 -6.095)" fill="#d4000b"/>
          <path id="패스_5918" data-name="패스 5918" d="M171.6,21.051c.043.33.082.674.11,1.028a10.7,10.7,0,0,1,.055,1.133v.6H160.109c.045.378.106.759.171,1.148a5.4,5.4,0,0,0,.332,1.15,4.16,4.16,0,0,0,1.132,1.527,3.726,3.726,0,0,0,4.258,0,4.173,4.173,0,0,0,1.134-1.527h4.326a7.377,7.377,0,0,1-.755,2.027,7.515,7.515,0,0,1-1.06,1.495,5.984,5.984,0,0,1-1.25,1.053,9.282,9.282,0,0,1-1.3.681,8.845,8.845,0,0,1-3.23.6,8.739,8.739,0,0,1-3.958-.935,8.4,8.4,0,0,1-1.451-1.014,6.1,6.1,0,0,1-1.262-1.548,8.456,8.456,0,0,1-.882-2.231,12.287,12.287,0,0,1-.334-3.03,12.294,12.294,0,0,1,.334-3.026,8.678,8.678,0,0,1,.882-2.246,6.138,6.138,0,0,1,1.262-1.58,7.969,7.969,0,0,1,1.451-1.032,8.751,8.751,0,0,1,3.958-1,9.369,9.369,0,0,1,3.431.763,8.5,8.5,0,0,1,1.346.783,6.684,6.684,0,0,1,1.266,1.2,8.154,8.154,0,0,1,1.026,1.7,8.688,8.688,0,0,1,.654,2.282m-4.2,0a8.546,8.546,0,0,0-.413-1.066,3.382,3.382,0,0,0-.683-.964,3.141,3.141,0,0,0-1.034-.681,4.037,4.037,0,0,0-2.8,0,3.091,3.091,0,0,0-1.026.681,3.543,3.543,0,0,0-.7.964,4.958,4.958,0,0,0-.4,1.066Z" transform="translate(-66.345 -6.095)" fill="#d4000b"/>
          <path id="패스_5919" data-name="패스 5919" d="M19.262,16.047H10.272v3.73H15.39c0,1.738-.928,4.192-4.8,4.192S4,22.793,4,16.33C4,9.8,6.761,8.652,10.74,8.652a4.168,4.168,0,0,1,4.4,3.525h4.023c-.332-2.923-2.017-7.42-8.89-7.42C1.62,4.757,0,10.1,0,16.3c0,4.135.784,11.6,10.272,11.6s8.991-8.255,8.991-8.255Z" transform="translate(0 -2.023)" fill="#d4000b"/>
          <path id="패스_5920" data-name="패스 5920" d="M130.491,0c-3.866.29-9.695,2.9-7.724,7.779a10.51,10.51,0,0,0,3.807-2.49l.817-.9a27.9,27.9,0,0,0,1.8-2.545c.334-.4-2.122,5.775-5.91,6.948.125.781,4.223,1.23,5.835-2.132A14.73,14.73,0,0,0,130.491,0" transform="translate(-52.048)" fill="#a9c300" fill-rule="evenodd"/>
          <path id="패스_5921" data-name="패스 5921" d="M117.858,8.449a7.378,7.378,0,0,0-3.038-1.541c-.363,1.908.147,5.1,2.761,4.77a5.148,5.148,0,0,0-.718-2.175l-.322-.531a13.9,13.9,0,0,0-1.012-1.186c-.137-.228,2.548,1.783,2.61,3.769.4.049,1.158-1.891-.282-3.107" transform="translate(-48.792 -2.938)" fill="#a9c300" fill-rule="evenodd"/>
        </g>
      </g>
    </g>
  </g>
</svg>
