<svg width="2193" height="1743" viewBox="0 0 2193 1743" fill="none" xmlns="http://www.w3.org/2000/svg">
<path d="M930.758 222.935L993.763 196C1011.36 204.978 1056.68 228.402 1097.21 250.272C1147.87 277.609 1189.16 364.041 1212.15 396.604C1235.14 429.167 1258.13 483.439 1241.1 543.339C1224.07 603.239 1200.66 591.983 1154.68 662.737C1117.9 719.34 1067.27 740.459 1046.55 743.943C1051.31 769.97 1028.57 819.965 1011.27 858.009L1011.22 858.115L930.758 966.659L965.241 1069.57C969.072 1105.76 953.746 1175.95 861.793 1167.26C769.84 1158.58 765.866 1080.56 775.374 1042.64C792.686 1020.93 827.311 967.704 827.311 928.467C827.311 889.231 792.686 789.103 775.374 743.943C733.825 717.893 723.437 653.491 723.437 624.546C710.098 584.746 682.228 491.077 677.461 434.796C672.693 378.514 706.125 364.175 723.437 364.041L775.374 298.915L827.311 266.352H861.793L884.781 250.272L930.758 222.935Z" fill="#ECD948" stroke="black" stroke-width="54"/>
<path d="M62.5419 856.165C52.659 865.807 52.4636 881.635 62.1055 891.518L219.228 1052.57C228.87 1062.45 244.698 1062.65 254.581 1053.01C264.464 1043.36 264.659 1027.54 255.017 1017.65L115.353 874.496L258.509 734.831C268.392 725.19 268.587 709.362 258.945 699.479C249.304 689.596 233.476 689.401 223.593 699.042L62.5419 856.165ZM79.6914 899.058L646.691 906.058L647.309 856.062L80.3086 849.062L79.6914 899.058Z" fill="black"/>
<path d="M2034.46 905.954C2044.34 896.313 2044.54 880.485 2034.89 870.602L1877.77 709.551C1868.13 699.668 1852.3 699.472 1842.42 709.114C1832.54 718.756 1832.34 734.584 1841.98 744.467L1981.65 887.623L1838.49 1027.29C1828.61 1036.93 1828.41 1052.76 1838.05 1062.64C1847.7 1072.52 1863.52 1072.72 1873.41 1063.08L2034.46 905.954ZM1449.69 906.058L2016.69 913.058L2017.31 863.062L1450.31 856.062L1449.69 906.058Z" fill="black"/>
<path d="M1023.76 307.374L1034.78 370.103" stroke="black" stroke-width="28" stroke-linecap="round"/>
<line x1="790.537" y1="386.007" x2="807.491" y2="426.697" stroke="black" stroke-width="23"/>
<path d="M848.622 410.37L865.576 473.946" stroke="black" stroke-width="27" stroke-linecap="round"/>
<path d="M951 471V517" stroke="black" stroke-width="29" stroke-linecap="round"/>
<path d="M1005.29 468.059L1034.11 542.656" stroke="black" stroke-width="19" stroke-linecap="round"/>
<line x1="1097.88" y1="590.849" x2="1120.77" y2="619.67" stroke="black" stroke-width="37"/>
<path d="M843.922 654.042L846.465 706.599" stroke="black" stroke-width="24" stroke-linecap="round"/>
<path d="M907.172 696.948L945.318 724.074" stroke="black" stroke-width="35" stroke-linecap="round"/>
<path d="M539.6 282.2L643 357L585.556 282.2C570.237 232.476 530.409 145.691 493.645 196.351C456.881 247.011 508.963 274.692 539.6 282.2Z" stroke="black" stroke-width="22"/>
<path d="M471.378 385H626L534.498 350.543L471.378 299.071C433.252 274.115 357 239.176 357 299.071C357 358.966 433.252 381.313 471.378 385Z" stroke="black" stroke-width="22"/>
</svg>
